<?xml version="1.0" encoding="utf-8"?>
<!-- Generator: Adobe Illustrator 27.4.1, SVG Export Plug-In . SVG Version: 6.00 Build 0)  -->
<svg version="1.1" id="Layer_1" xmlns="http://www.w3.org/2000/svg" xmlns:xlink="http://www.w3.org/1999/xlink" x="0px" y="0px"
	 viewBox="0 0 396.85 170.08" style="enable-background:new 0 0 396.85 170.08;" xml:space="preserve">
<style type="text/css">
	.st0{fill:#273A7C;}
</style>
<path class="st0" d="M36.68,143.68l1.34,0.18c-0.15,0.92-0.53,1.64-1.13,2.16c-0.6,0.52-1.34,0.78-2.22,0.78
	c-1.1,0-1.98-0.36-2.65-1.08c-0.67-0.72-1.01-1.75-1.01-3.1c0-0.87,0.15-1.62,0.43-2.28c0.29-0.65,0.73-1.14,1.32-1.47
	c0.59-0.32,1.23-0.48,1.92-0.48c0.88,0,1.59,0.22,2.15,0.66c0.56,0.44,0.91,1.07,1.07,1.89l-1.32,0.21
	c-0.13-0.54-0.35-0.95-0.67-1.23c-0.32-0.27-0.71-0.41-1.16-0.41c-0.69,0-1.25,0.25-1.68,0.74c-0.43,0.49-0.65,1.27-0.65,2.34
	c0,1.08,0.21,1.87,0.62,2.36c0.42,0.49,0.96,0.74,1.62,0.74c0.54,0,0.99-0.16,1.35-0.49C36.35,144.87,36.58,144.36,36.68,143.68"/>
<path class="st0" d="M42.86,142.61c0,1.03,0.22,1.79,0.67,2.31c0.45,0.51,1.02,0.77,1.7,0.77c0.68,0,1.25-0.26,1.7-0.77
	c0.45-0.52,0.67-1.3,0.67-2.36c0-0.99-0.23-1.75-0.68-2.26c-0.45-0.51-1.02-0.77-1.69-0.77c-0.68,0-1.25,0.25-1.7,0.76
	C43.08,140.8,42.86,141.58,42.86,142.61 M41.46,142.6c0-1.49,0.41-2.6,1.25-3.31c0.69-0.6,1.53-0.89,2.53-0.89
	c1.11,0,2.01,0.36,2.72,1.09c0.7,0.72,1.06,1.72,1.06,3c0,1.04-0.15,1.85-0.47,2.44c-0.31,0.59-0.76,1.06-1.36,1.38
	c-0.59,0.33-1.24,0.49-1.95,0.49c-1.13,0-2.04-0.36-2.74-1.09C41.81,145,41.46,143.96,41.46,142.6"/>
<path class="st0" d="M53.41,146.63v-8.07h1.23v1.14c0.59-0.88,1.45-1.31,2.56-1.31c0.48,0,0.93,0.08,1.34,0.26
	c0.4,0.18,0.71,0.41,0.91,0.69c0.2,0.28,0.34,0.62,0.43,1.01c0.05,0.26,0.07,0.7,0.07,1.32v4.96h-1.37v-4.9
	c0-0.56-0.05-0.97-0.15-1.25c-0.11-0.28-0.29-0.49-0.57-0.66c-0.27-0.16-0.59-0.25-0.95-0.25c-0.58,0-1.08,0.18-1.5,0.55
	c-0.42,0.37-0.63,1.07-0.63,2.11v4.4H53.41z"/>
<path class="st0" d="M70.12,143.68l1.34,0.18c-0.14,0.92-0.52,1.64-1.12,2.16c-0.61,0.52-1.35,0.78-2.22,0.78
	c-1.1,0-1.99-0.36-2.66-1.08c-0.67-0.72-1-1.75-1-3.1c0-0.87,0.14-1.62,0.43-2.28c0.29-0.65,0.73-1.14,1.31-1.47
	c0.59-0.32,1.23-0.48,1.93-0.48c0.88,0,1.59,0.22,2.14,0.66c0.56,0.44,0.92,1.07,1.07,1.89l-1.32,0.21
	c-0.13-0.54-0.36-0.95-0.68-1.23c-0.32-0.27-0.71-0.41-1.17-0.41c-0.69,0-1.25,0.25-1.68,0.74c-0.43,0.49-0.65,1.27-0.65,2.34
	c0,1.08,0.21,1.87,0.62,2.36c0.42,0.49,0.96,0.74,1.63,0.74c0.54,0,0.98-0.16,1.35-0.49C69.8,144.87,70.03,144.36,70.12,143.68"/>
<path class="st0" d="M75.4,146.63v-8.07h1.23v1.24c0.31-0.58,0.61-0.95,0.87-1.13c0.27-0.19,0.56-0.28,0.88-0.28
	c0.46,0,0.93,0.14,1.41,0.43l-0.49,1.26c-0.33-0.19-0.66-0.28-0.99-0.28c-0.3,0-0.56,0.09-0.8,0.27c-0.24,0.18-0.41,0.43-0.5,0.75
	c-0.15,0.49-0.23,1.02-0.23,1.6v4.21H75.4z"/>
<path class="st0" d="M84.42,141.83h4.49c-0.06-0.68-0.23-1.19-0.51-1.53c-0.43-0.52-1-0.79-1.69-0.79c-0.63,0-1.15,0.21-1.58,0.63
	C84.71,140.57,84.47,141.13,84.42,141.83 M88.9,144.02l1.42,0.18c-0.22,0.82-0.63,1.46-1.24,1.92c-0.6,0.45-1.36,0.68-2.3,0.68
	c-1.17,0-2.11-0.36-2.8-1.09c-0.69-0.72-1.04-1.74-1.04-3.05c0-1.35,0.35-2.4,1.05-3.15c0.69-0.75,1.6-1.12,2.71-1.12
	c1.07,0,1.95,0.37,2.63,1.1c0.68,0.73,1.02,1.76,1.02,3.09c0,0.08,0,0.2-0.01,0.36h-6c0.05,0.88,0.3,1.56,0.75,2.03
	c0.45,0.47,1.01,0.7,1.68,0.7c0.5,0,0.93-0.13,1.28-0.39C88.42,145.03,88.69,144.61,88.9,144.02"/>
<path class="st0" d="M97.81,145.41l0.19,1.21c-0.38,0.08-0.73,0.12-1.03,0.12c-0.49,0-0.88-0.08-1.15-0.24
	c-0.27-0.15-0.47-0.36-0.58-0.62c-0.11-0.26-0.17-0.79-0.17-1.62v-4.65h-1.01v-1.06h1.01v-2l1.36-0.82v2.81h1.37v1.06h-1.37v4.73
	c0,0.39,0.03,0.64,0.07,0.75c0.05,0.11,0.13,0.2,0.24,0.27c0.11,0.06,0.26,0.1,0.46,0.1C97.36,145.47,97.56,145.45,97.81,145.41"/>
<path class="st0" d="M102.97,141.83h4.49c-0.06-0.68-0.23-1.19-0.52-1.53c-0.43-0.52-0.99-0.79-1.69-0.79
	c-0.62,0-1.15,0.21-1.58,0.63C103.25,140.57,103.01,141.13,102.97,141.83 M107.44,144.02l1.42,0.18c-0.22,0.82-0.63,1.46-1.24,1.92
	c-0.6,0.45-1.36,0.68-2.3,0.68c-1.17,0-2.11-0.36-2.8-1.09c-0.69-0.72-1.04-1.74-1.04-3.05c0-1.35,0.35-2.4,1.05-3.15
	c0.69-0.75,1.6-1.12,2.71-1.12c1.07,0,1.95,0.37,2.64,1.1c0.68,0.73,1.02,1.76,1.02,3.09c0,0.08,0,0.2-0.01,0.36h-6.01
	c0.05,0.88,0.3,1.56,0.75,2.03c0.45,0.47,1.01,0.7,1.68,0.7c0.5,0,0.93-0.13,1.28-0.39C106.96,145.03,107.24,144.61,107.44,144.02"
	/>
<path class="st0" d="M121.72,142.54c0,0.97,0.13,1.66,0.4,2.09c0.43,0.7,1.01,1.05,1.75,1.05c0.59,0,1.11-0.26,1.55-0.78
	c0.43-0.51,0.65-1.29,0.65-2.32c0-1.05-0.21-1.82-0.63-2.32c-0.42-0.51-0.92-0.75-1.51-0.75c-0.6,0-1.11,0.26-1.54,0.78
	C121.95,140.81,121.72,141.56,121.72,142.54 M121.74,146.63h-1.27V135.5h1.37v3.97c0.58-0.72,1.32-1.08,2.21-1.08
	c0.5,0,0.96,0.1,1.41,0.3c0.44,0.2,0.81,0.48,1.1,0.84c0.28,0.36,0.51,0.8,0.67,1.31c0.16,0.51,0.24,1.06,0.24,1.64
	c0,1.38-0.34,2.44-1.03,3.2c-0.68,0.75-1.5,1.13-2.46,1.13c-0.95,0-1.69-0.39-2.24-1.18V146.63z"/>
<rect x="131.9" y="135.5" class="st0" width="1.37" height="11.13"/>
<path class="st0" d="M139.06,142.61c0,1.03,0.23,1.79,0.68,2.31c0.45,0.51,1.02,0.77,1.7,0.77c0.68,0,1.25-0.26,1.7-0.77
	c0.45-0.52,0.68-1.3,0.68-2.36c0-0.99-0.23-1.75-0.68-2.26c-0.45-0.51-1.02-0.77-1.7-0.77c-0.68,0-1.25,0.25-1.7,0.76
	C139.29,140.8,139.06,141.58,139.06,142.61 M137.66,142.6c0-1.49,0.41-2.6,1.25-3.31c0.69-0.6,1.54-0.89,2.53-0.89
	c1.11,0,2.01,0.36,2.72,1.09c0.7,0.72,1.05,1.72,1.05,3c0,1.04-0.16,1.85-0.47,2.44c-0.31,0.59-0.76,1.06-1.36,1.38
	c-0.59,0.33-1.24,0.49-1.95,0.49c-1.13,0-2.04-0.36-2.74-1.09C138.01,145,137.66,143.96,137.66,142.6"/>
<path class="st0" d="M154.89,143.68l1.34,0.18c-0.15,0.92-0.52,1.64-1.12,2.16c-0.61,0.52-1.35,0.78-2.23,0.78
	c-1.1,0-1.99-0.36-2.66-1.08c-0.67-0.72-1-1.75-1-3.1c0-0.87,0.14-1.62,0.43-2.28c0.29-0.65,0.73-1.14,1.31-1.47
	c0.59-0.32,1.23-0.48,1.93-0.48c0.87,0,1.59,0.22,2.14,0.66c0.56,0.44,0.92,1.07,1.07,1.89l-1.32,0.21
	c-0.12-0.54-0.35-0.95-0.67-1.23c-0.32-0.27-0.71-0.41-1.17-0.41c-0.69,0-1.25,0.25-1.68,0.74c-0.43,0.49-0.65,1.27-0.65,2.34
	c0,1.08,0.21,1.87,0.62,2.36c0.42,0.49,0.96,0.74,1.63,0.74c0.54,0,0.98-0.16,1.34-0.49C154.57,144.87,154.79,144.36,154.89,143.68"
	/>
<polygon class="st0" points="160.19,146.63 160.19,135.5 161.56,135.5 161.56,141.84 164.79,138.57 166.55,138.57 163.48,141.56 
	166.87,146.63 165.18,146.63 162.5,142.51 161.56,143.43 161.56,146.63 "/>
<path class="st0" d="M177.84,146.63v-8.07h1.23v1.14c0.25-0.4,0.59-0.71,1.01-0.96c0.42-0.24,0.9-0.35,1.43-0.35
	c0.6,0,1.09,0.13,1.47,0.37c0.38,0.25,0.65,0.59,0.8,1.04c0.64-0.94,1.48-1.41,2.5-1.41c0.8,0,1.42,0.22,1.85,0.66
	c0.43,0.44,0.64,1.13,0.64,2.04v5.53h-1.36v-5.08c0-0.55-0.05-0.94-0.13-1.18c-0.09-0.24-0.25-0.43-0.48-0.58
	c-0.23-0.15-0.51-0.22-0.82-0.22c-0.57,0-1.04,0.18-1.42,0.57c-0.38,0.38-0.56,0.98-0.56,1.81v4.68h-1.37v-5.24
	c0-0.6-0.11-1.06-0.33-1.37c-0.22-0.3-0.58-0.45-1.09-0.45c-0.38,0-0.74,0.1-1.07,0.31c-0.32,0.2-0.56,0.5-0.71,0.88
	c-0.15,0.39-0.22,0.95-0.22,1.69v4.18H177.84z"/>
<path class="st0" d="M198.76,142.59c-0.5,0.2-1.25,0.38-2.24,0.52c-0.56,0.08-0.96,0.17-1.2,0.27c-0.24,0.1-0.42,0.25-0.54,0.44
	c-0.13,0.19-0.19,0.41-0.19,0.64c0,0.36,0.14,0.66,0.41,0.91c0.28,0.24,0.68,0.36,1.22,0.36c0.53,0,0.99-0.11,1.41-0.35
	c0.41-0.23,0.71-0.54,0.9-0.94c0.15-0.31,0.22-0.76,0.22-1.36L198.76,142.59z M198.87,145.62c-0.51,0.43-1,0.74-1.47,0.92
	c-0.47,0.18-0.97,0.26-1.51,0.26c-0.89,0-1.57-0.22-2.04-0.65c-0.48-0.43-0.72-0.98-0.72-1.66c0-0.39,0.09-0.75,0.27-1.08
	c0.18-0.32,0.42-0.59,0.71-0.78c0.29-0.2,0.62-0.34,0.98-0.45c0.27-0.07,0.68-0.14,1.22-0.21c1.11-0.13,1.92-0.29,2.44-0.47
	c0.01-0.18,0.01-0.3,0.01-0.36c0-0.55-0.13-0.94-0.39-1.17c-0.35-0.3-0.87-0.46-1.56-0.46c-0.64,0-1.12,0.11-1.43,0.34
	c-0.31,0.23-0.54,0.62-0.68,1.2l-1.34-0.19c0.12-0.57,0.32-1.04,0.6-1.38c0.28-0.36,0.69-0.62,1.21-0.81
	c0.53-0.19,1.14-0.28,1.83-0.28c0.7,0,1.26,0.08,1.68,0.24c0.43,0.16,0.75,0.37,0.95,0.61c0.21,0.24,0.35,0.56,0.43,0.93
	c0.05,0.23,0.07,0.65,0.07,1.26v1.81c0,1.26,0.03,2.07,0.09,2.41c0.06,0.34,0.17,0.66,0.34,0.97h-1.43
	C198.99,146.34,198.9,146.01,198.87,145.62"/>
<path class="st0" d="M210.31,143.68l1.33,0.18c-0.14,0.92-0.52,1.64-1.12,2.16c-0.61,0.52-1.35,0.78-2.23,0.78
	c-1.1,0-1.99-0.36-2.66-1.08c-0.67-0.72-1-1.75-1-3.1c0-0.87,0.14-1.62,0.43-2.28c0.29-0.65,0.73-1.14,1.31-1.47
	c0.59-0.32,1.23-0.48,1.93-0.48c0.88,0,1.59,0.22,2.14,0.66c0.56,0.44,0.92,1.07,1.07,1.89l-1.32,0.21
	c-0.13-0.54-0.36-0.95-0.68-1.23c-0.32-0.27-0.71-0.41-1.17-0.41c-0.69,0-1.25,0.25-1.68,0.74c-0.43,0.49-0.64,1.27-0.64,2.34
	c0,1.08,0.21,1.87,0.62,2.36c0.41,0.49,0.95,0.74,1.62,0.74c0.54,0,0.98-0.16,1.34-0.49C209.99,144.87,210.21,144.36,210.31,143.68"
	/>
<path class="st0" d="M215.6,146.63V135.5h1.37v4.01c0.63-0.74,1.43-1.12,2.4-1.12c0.6,0,1.11,0.11,1.55,0.35
	c0.44,0.24,0.75,0.56,0.94,0.97c0.18,0.42,0.28,1.02,0.28,1.81v5.1h-1.37v-5.1c0-0.68-0.14-1.18-0.44-1.49
	c-0.3-0.31-0.71-0.46-1.25-0.46c-0.4,0-0.78,0.1-1.13,0.31c-0.36,0.21-0.61,0.5-0.76,0.86c-0.15,0.36-0.23,0.85-0.23,1.48v4.4H215.6
	z"/>
<path class="st0" d="M227.04,138.57h1.37v8.06h-1.37V138.57z M227.04,135.5h1.37v1.56h-1.37V135.5z"/>
<path class="st0" d="M233.3,146.63v-8.07h1.23v1.14c0.59-0.88,1.45-1.31,2.56-1.31c0.49,0,0.93,0.08,1.34,0.26
	c0.41,0.18,0.71,0.41,0.91,0.69c0.2,0.28,0.35,0.62,0.43,1.01c0.05,0.26,0.07,0.7,0.07,1.32v4.96h-1.37v-4.9
	c0-0.56-0.06-0.97-0.16-1.25c-0.11-0.28-0.29-0.49-0.57-0.66c-0.27-0.16-0.59-0.25-0.95-0.25c-0.58,0-1.08,0.18-1.5,0.55
	c-0.42,0.37-0.63,1.07-0.63,2.11v4.4H233.3z"/>
<path class="st0" d="M245.76,141.83h4.5c-0.06-0.68-0.23-1.19-0.51-1.53c-0.44-0.52-1-0.79-1.69-0.79c-0.63,0-1.15,0.21-1.58,0.63
	C246.04,140.57,245.81,141.13,245.76,141.83 M250.24,144.02l1.42,0.18c-0.22,0.82-0.63,1.46-1.24,1.92c-0.6,0.45-1.37,0.68-2.3,0.68
	c-1.17,0-2.11-0.36-2.8-1.09c-0.68-0.72-1.03-1.74-1.03-3.05c0-1.35,0.35-2.4,1.05-3.15c0.7-0.75,1.6-1.12,2.71-1.12
	c1.08,0,1.96,0.37,2.64,1.1c0.68,0.73,1.02,1.76,1.02,3.09c0,0.08-0.01,0.2-0.01,0.36h-6c0.05,0.88,0.3,1.56,0.75,2.03
	c0.45,0.47,1.01,0.7,1.68,0.7c0.5,0,0.93-0.13,1.28-0.39C249.75,145.03,250.04,144.61,250.24,144.02"/>
<path class="st0" d="M268.55,143.68l1.33,0.18c-0.14,0.92-0.52,1.64-1.12,2.16c-0.61,0.52-1.35,0.78-2.23,0.78
	c-1.1,0-1.99-0.36-2.66-1.08c-0.67-0.72-1-1.75-1-3.1c0-0.87,0.14-1.62,0.43-2.28c0.29-0.65,0.73-1.14,1.31-1.47
	c0.59-0.32,1.23-0.48,1.93-0.48c0.88,0,1.59,0.22,2.14,0.66c0.56,0.44,0.92,1.07,1.07,1.89l-1.32,0.21
	c-0.13-0.54-0.35-0.95-0.67-1.23c-0.32-0.27-0.71-0.41-1.17-0.41c-0.68,0-1.25,0.25-1.68,0.74c-0.43,0.49-0.64,1.27-0.64,2.34
	c0,1.08,0.21,1.87,0.62,2.36c0.41,0.49,0.95,0.74,1.62,0.74c0.54,0,0.98-0.16,1.34-0.49C268.23,144.87,268.45,144.36,268.55,143.68"
	/>
<path class="st0" d="M274.73,142.61c0,1.03,0.23,1.79,0.68,2.31c0.45,0.51,1.02,0.77,1.71,0.77c0.68,0,1.24-0.26,1.69-0.77
	c0.45-0.52,0.68-1.3,0.68-2.36c0-0.99-0.23-1.75-0.68-2.26c-0.46-0.51-1.02-0.77-1.69-0.77c-0.68,0-1.26,0.25-1.71,0.76
	C274.95,140.8,274.73,141.58,274.73,142.61 M273.33,142.6c0-1.49,0.42-2.6,1.25-3.31c0.7-0.6,1.54-0.89,2.54-0.89
	c1.11,0,2.01,0.36,2.71,1.09c0.7,0.72,1.06,1.72,1.06,3c0,1.04-0.16,1.85-0.47,2.44c-0.31,0.59-0.77,1.06-1.36,1.38
	c-0.6,0.33-1.25,0.49-1.95,0.49c-1.13,0-2.05-0.36-2.74-1.09C273.68,145,273.33,143.96,273.33,142.6"/>
<path class="st0" d="M285.28,146.63v-8.07h1.23v1.14c0.25-0.4,0.59-0.71,1.01-0.96c0.42-0.24,0.9-0.35,1.43-0.35
	c0.6,0,1.09,0.13,1.47,0.37c0.38,0.25,0.65,0.59,0.81,1.04c0.64-0.94,1.47-1.41,2.5-1.41c0.8,0,1.42,0.22,1.85,0.66
	c0.43,0.44,0.65,1.13,0.65,2.04v5.53h-1.37v-5.08c0-0.55-0.05-0.94-0.13-1.18c-0.09-0.24-0.25-0.43-0.48-0.58
	c-0.23-0.15-0.51-0.22-0.82-0.22c-0.57,0-1.04,0.18-1.42,0.57c-0.37,0.38-0.56,0.98-0.56,1.81v4.68h-1.37v-5.24
	c0-0.6-0.11-1.06-0.33-1.37c-0.22-0.3-0.59-0.45-1.09-0.45c-0.39,0-0.74,0.1-1.07,0.31c-0.33,0.2-0.57,0.5-0.71,0.88
	c-0.14,0.39-0.22,0.95-0.22,1.69v4.18H285.28z"/>
<path class="st0" d="M302.28,142.65c0,1.04,0.21,1.8,0.63,2.3c0.42,0.49,0.93,0.74,1.52,0.74c0.6,0,1.12-0.26,1.56-0.77
	c0.43-0.51,0.65-1.31,0.65-2.38c0-1.02-0.22-1.79-0.63-2.3c-0.42-0.51-0.93-0.76-1.51-0.76s-1.1,0.27-1.54,0.81
	C302.51,140.82,302.28,141.61,302.28,142.65 M301.04,149.73v-11.16h1.24v1.06c0.29-0.41,0.63-0.72,0.99-0.93
	c0.37-0.2,0.82-0.3,1.35-0.3c0.69,0,1.3,0.18,1.82,0.53c0.53,0.35,0.92,0.85,1.19,1.5c0.27,0.64,0.4,1.35,0.4,2.12
	c0,0.82-0.15,1.56-0.44,2.22c-0.29,0.66-0.73,1.16-1.29,1.52c-0.57,0.35-1.16,0.53-1.78,0.53c-0.45,0-0.86-0.1-1.22-0.28
	c-0.36-0.2-0.66-0.44-0.9-0.73v3.93H301.04z"/>
<path class="st0" d="M317.64,142.59c-0.5,0.2-1.25,0.38-2.24,0.52c-0.56,0.08-0.96,0.17-1.2,0.27c-0.24,0.1-0.41,0.25-0.54,0.44
	c-0.13,0.19-0.19,0.41-0.19,0.64c0,0.36,0.14,0.66,0.41,0.91c0.28,0.24,0.68,0.36,1.21,0.36c0.53,0,0.99-0.11,1.41-0.35
	c0.41-0.23,0.71-0.54,0.9-0.94c0.15-0.31,0.22-0.76,0.22-1.36L317.64,142.59z M317.75,145.62c-0.51,0.43-1,0.74-1.47,0.92
	c-0.47,0.18-0.97,0.26-1.51,0.26c-0.89,0-1.57-0.22-2.05-0.65c-0.48-0.43-0.72-0.98-0.72-1.66c0-0.39,0.09-0.75,0.27-1.08
	c0.18-0.32,0.41-0.59,0.71-0.78c0.29-0.2,0.62-0.34,0.98-0.45c0.27-0.07,0.67-0.14,1.22-0.21c1.11-0.13,1.92-0.29,2.44-0.47
	c0-0.18,0.01-0.3,0.01-0.36c0-0.55-0.13-0.94-0.39-1.17c-0.35-0.3-0.88-0.46-1.57-0.46c-0.64,0-1.12,0.11-1.43,0.34
	c-0.3,0.23-0.53,0.62-0.68,1.2l-1.33-0.19c0.12-0.57,0.32-1.04,0.6-1.38c0.28-0.36,0.68-0.62,1.21-0.81
	c0.53-0.19,1.14-0.28,1.84-0.28c0.69,0,1.25,0.08,1.68,0.24c0.43,0.16,0.75,0.37,0.95,0.61c0.21,0.24,0.35,0.56,0.43,0.93
	c0.05,0.23,0.07,0.65,0.07,1.26v1.81c0,1.26,0.03,2.07,0.08,2.41c0.06,0.34,0.16,0.66,0.33,0.97h-1.43
	C317.88,146.34,317.79,146.01,317.75,145.62"/>
<path class="st0" d="M323.93,146.63v-8.07h1.23v1.14c0.59-0.88,1.45-1.31,2.56-1.31c0.48,0,0.93,0.08,1.34,0.26
	c0.41,0.18,0.71,0.41,0.91,0.69c0.21,0.28,0.35,0.62,0.43,1.01c0.05,0.26,0.07,0.7,0.07,1.32v4.96h-1.36v-4.9
	c0-0.56-0.05-0.97-0.16-1.25c-0.11-0.28-0.29-0.49-0.57-0.66c-0.27-0.16-0.59-0.25-0.95-0.25c-0.58,0-1.08,0.18-1.51,0.55
	c-0.42,0.37-0.63,1.07-0.63,2.11v4.4H323.93z"/>
<path class="st0" d="M335.3,149.73l-0.15-1.26c0.3,0.08,0.56,0.12,0.78,0.12c0.31,0,0.55-0.05,0.73-0.15
	c0.18-0.1,0.33-0.24,0.45-0.43c0.09-0.13,0.23-0.48,0.42-1.02c0.03-0.08,0.06-0.19,0.12-0.34l-3.06-8.09h1.46l1.68,4.66
	c0.22,0.59,0.42,1.21,0.59,1.86c0.16-0.61,0.35-1.22,0.57-1.82l1.72-4.7h1.36l-3.05,8.21c-0.33,0.88-0.59,1.49-0.77,1.82
	c-0.25,0.45-0.53,0.78-0.84,0.99c-0.32,0.21-0.69,0.31-1.13,0.31C335.93,149.9,335.63,149.84,335.3,149.73"/>
<path class="st0" d="M358.88,59.25h1.3c0.62,0,1.05-0.09,1.27-0.28c0.23-0.19,0.34-0.43,0.34-0.73c0-0.19-0.05-0.37-0.16-0.53
	c-0.11-0.15-0.26-0.27-0.46-0.34c-0.19-0.08-0.55-0.11-1.08-0.11h-1.22V59.25z M357.81,62.99v-6.64h2.29c0.78,0,1.34,0.06,1.69,0.19
	c0.35,0.12,0.63,0.33,0.83,0.64c0.21,0.31,0.31,0.63,0.31,0.97c0,0.48-0.17,0.91-0.52,1.27c-0.35,0.36-0.8,0.56-1.38,0.61
	c0.24,0.1,0.42,0.21,0.57,0.35c0.27,0.26,0.59,0.7,0.98,1.31l0.81,1.3h-1.3l-0.59-1.05c-0.46-0.82-0.84-1.34-1.12-1.54
	c-0.2-0.15-0.48-0.23-0.86-0.23h-0.63v2.82H357.81z M360.52,54.42c-0.86,0-1.71,0.22-2.53,0.67c-0.82,0.44-1.47,1.08-1.93,1.91
	c-0.46,0.82-0.7,1.69-0.7,2.58c0,0.89,0.23,1.74,0.68,2.56c0.45,0.81,1.09,1.45,1.91,1.9c0.82,0.46,1.67,0.69,2.56,0.69
	c0.89,0,1.75-0.23,2.57-0.69c0.82-0.45,1.45-1.09,1.91-1.9c0.45-0.82,0.68-1.67,0.68-2.56c0-0.89-0.23-1.76-0.69-2.58
	c-0.46-0.83-1.1-1.46-1.93-1.91C362.23,54.64,361.39,54.42,360.52,54.42 M360.52,53.4c1.04,0,2.05,0.26,3.04,0.8
	c0.99,0.53,1.76,1.29,2.31,2.28c0.55,0.99,0.82,2.02,0.82,3.1c0,1.07-0.27,2.08-0.81,3.07c-0.54,0.99-1.3,1.75-2.28,2.29
	c-0.98,0.55-2,0.81-3.08,0.81c-1.07,0-2.09-0.27-3.07-0.81c-0.98-0.54-1.74-1.3-2.29-2.29c-0.55-0.98-0.82-2-0.82-3.07
	c0-1.07,0.27-2.11,0.83-3.1s1.32-1.75,2.31-2.28C358.48,53.66,359.49,53.4,360.52,53.4"/>
<path class="st0" d="M134.56,114.63l12.3-43.1c0,0,2.04-7.61,9.09-6.65c0,0,6.72,1.57,4.36,9.93l-12.39,41.34
	c0,0-1.31,7.77-8.88,7.1C139.03,123.24,132.79,122.7,134.56,114.63 M116.89,129.22h12.43l2.4-5.71h0.94c0,0,2.57,6.62,14.78,5.87
	c0,0,9.33-0.58,12.97-10.08l13.11-44.98c0,0,4.07-11.14-8.85-15.13c0,0-5.61-1.74-14.81,3.55l12.14-42.56H149.1L116.89,129.22z"/>
<path class="st0" d="M67.57,121.09l-0.93,1.94c0,0-16.43,10.81-30.46,4.5c0,0-7.28-3.03-5.83-11.89l12.39-42.51
	c0,0,2.25-13.19,22.11-14.71c0,0,21.34-1.18,17.12,18.4H68.92l1.82-7.31c0,0,2.39-7.44-4.66-7.74c0,0-7.88,0.37-9.79,8.76
	L44.81,109.2c0,0-3.58,9.52,2.94,12.63c0.01,0.01,0.04,0.01,0.04,0.01C56.68,125.14,67.57,121.09,67.57,121.09"/>
<path class="st0" d="M115.24,69.49c0,0,1.89-7.35-4.66-7.74c0,0-6.64-1.14-9.79,8.76L89.3,109.17c0,0-3.58,9.53,2.95,12.63
	c0.01,0,0.04,0.01,0.04,0.01c8.89,3.3,19.78-0.75,19.78-0.75l-0.93,1.94c0,0-16.43,10.82-30.46,4.51c0,0-7.28-3.03-5.83-11.89
	l12.39-42.52c0,0,2.24-13.19,22.11-14.71c0,0,15.99-0.08,17.25,10.91l-13.75,49.67c0,0-8.97,3.12-12.79,2.24L115.24,69.49z"/>
<path class="st0" d="M341.23,121.09l-0.93,1.94c0,0-16.43,10.81-30.46,4.5c0,0-7.28-3.03-5.83-11.89l12.39-42.51
	c0,0,2.24-13.19,22.12-14.71c0,0,21.33-1.18,17.12,18.4h-13.05l1.82-7.31c0,0,3.06-7.58-4.66-7.74c0,0-7.88,0.37-9.79,8.76
	l-11.49,38.67c0,0-3.58,9.52,2.94,12.63c0.02,0.01,0.04,0.01,0.04,0.01C330.35,125.14,341.23,121.09,341.23,121.09"/>
<path class="st0" d="M273.34,66.86l0.39-1.36c0,0,13.02-10.08,27.12-6.41c0,0,11.9,2.72,9.34,13.71l-12.41,43.04
	c0,0-7.27,15.05-25.05,13.58c0,0-16.98-2.07-14.32-17.36l7.6-26.92c0,0,2.37-8.64,14.91-8.21c0,0,8.43-0.12,12.04,5.93l-0.47,1.45
	c0,0-3.56-6-9.77-1.82c0,0-3.43,1.53-5.04,9.1l-7.48,25.98c0,0-1.99,5.93,3.12,8.46c0,0,5.56,2.35,10.43-6.9l12.22-40.45
	c0,0,4.13-10.44-5.55-13.94C290.4,64.74,283.88,62.32,273.34,66.86"/>
<path class="st0" d="M175.42,129.05h12.15l18.25-60.5c0,0,2.6-5.6,10.92-4c0,0,5.01,1.6,3.01,8.12l-16.27,56.19h11.79l18.34-59.74
	c0,0,2.36-5.55,10.62-3.15c0,0,3.6,1.19,1.84,8.42l-12.12,43.46c0,0-2.98,9.25,5.41,10.93c0,0,10.95,2.08,15.79-5.44V122
	c0,0-3.61,3.06-8.5,2.22c0,0-2.44-0.08-0.8-5.83l12.74-44.58c0,0,4.47-13.41-9.07-14.43c0,0-7.52-1.64-15.95,5.11
	c0,0-7.82-11.76-26.04-0.97c0,0-2.1-12.34-29.99,1.34l0.49,1.55c0,0,17.83-7.19,14.09,4L175.42,129.05z"/>
</svg>
